<mxfile host="app.diagrams.net" modified="2021-04-15T01:12:41.452Z" agent="5.0 (Windows)" etag="X7DwTMNt3RWw68EJqvx1" version="14.6.0" type="github">
  <diagram id="0-HLeVHJZCkb-TzCpiPO" name="Page-1">
    <mxGraphModel dx="1790" dy="873" grid="1" gridSize="10" guides="1" tooltips="1" connect="1" arrows="1" fold="1" page="1" pageScale="1" pageWidth="850" pageHeight="1100" math="0" shadow="0">
      <root>
        <mxCell id="0" />
        <mxCell id="1" parent="0" />
        <mxCell id="MCdQvpjKP1I-DEN3pyH2-83" value="" style="group;fontStyle=1" parent="1" vertex="1" connectable="0">
          <mxGeometry x="40" y="80" width="200" height="40" as="geometry" />
        </mxCell>
        <mxCell id="MCdQvpjKP1I-DEN3pyH2-84" value="" style="group" parent="MCdQvpjKP1I-DEN3pyH2-83" vertex="1" connectable="0">
          <mxGeometry width="200" height="40" as="geometry" />
        </mxCell>
        <mxCell id="MCdQvpjKP1I-DEN3pyH2-85" value="" style="rounded=0;whiteSpace=wrap;html=1;" parent="MCdQvpjKP1I-DEN3pyH2-84" vertex="1">
          <mxGeometry width="200" height="40" as="geometry" />
        </mxCell>
        <mxCell id="MCdQvpjKP1I-DEN3pyH2-86" value="ID" style="text;html=1;strokeColor=none;fillColor=none;align=center;verticalAlign=middle;whiteSpace=wrap;rounded=0;" parent="MCdQvpjKP1I-DEN3pyH2-84" vertex="1">
          <mxGeometry width="80" height="40" as="geometry" />
        </mxCell>
        <mxCell id="MCdQvpjKP1I-DEN3pyH2-87" value="Key" style="text;html=1;strokeColor=none;fillColor=none;align=center;verticalAlign=middle;whiteSpace=wrap;rounded=0;" parent="MCdQvpjKP1I-DEN3pyH2-83" vertex="1">
          <mxGeometry x="80" width="120" height="40" as="geometry" />
        </mxCell>
        <mxCell id="MCdQvpjKP1I-DEN3pyH2-88" value="" style="endArrow=none;html=1;entryX=0.4;entryY=-0.002;entryDx=0;entryDy=0;entryPerimeter=0;exitX=0;exitY=1;exitDx=0;exitDy=0;" parent="MCdQvpjKP1I-DEN3pyH2-83" source="MCdQvpjKP1I-DEN3pyH2-87" target="MCdQvpjKP1I-DEN3pyH2-85" edge="1">
          <mxGeometry width="50" height="50" relative="1" as="geometry">
            <mxPoint x="80" y="40" as="sourcePoint" />
            <mxPoint x="200" y="-10" as="targetPoint" />
          </mxGeometry>
        </mxCell>
        <mxCell id="MCdQvpjKP1I-DEN3pyH2-89" value="Template" style="rounded=0;whiteSpace=wrap;html=1;" parent="1" vertex="1">
          <mxGeometry x="40" y="40" width="200" height="40" as="geometry" />
        </mxCell>
        <mxCell id="MCdQvpjKP1I-DEN3pyH2-104" value="" style="edgeStyle=entityRelationEdgeStyle;fontSize=12;html=1;endArrow=ERoneToMany;exitX=1;exitY=0;exitDx=0;exitDy=0;entryX=0;entryY=0;entryDx=0;entryDy=0;" parent="1" source="MCdQvpjKP1I-DEN3pyH2-63" target="MCdQvpjKP1I-DEN3pyH2-101" edge="1">
          <mxGeometry width="100" height="100" relative="1" as="geometry">
            <mxPoint x="620" y="300" as="sourcePoint" />
            <mxPoint x="720" y="200" as="targetPoint" />
          </mxGeometry>
        </mxCell>
        <mxCell id="MCdQvpjKP1I-DEN3pyH2-118" value="" style="edgeStyle=entityRelationEdgeStyle;fontSize=12;html=1;endArrow=ERoneToMany;exitX=0;exitY=0;exitDx=0;exitDy=0;entryX=1;entryY=0;entryDx=0;entryDy=0;" parent="1" source="MCdQvpjKP1I-DEN3pyH2-115" target="MCdQvpjKP1I-DEN3pyH2-102" edge="1">
          <mxGeometry width="100" height="100" relative="1" as="geometry">
            <mxPoint x="800" y="280" as="sourcePoint" />
            <mxPoint x="900" y="180" as="targetPoint" />
          </mxGeometry>
        </mxCell>
        <mxCell id="6xximR7d4hi-XPsdOH5O-1" value="" style="group" vertex="1" connectable="0" parent="1">
          <mxGeometry x="960" y="160" width="200" height="120" as="geometry" />
        </mxCell>
        <mxCell id="MCdQvpjKP1I-DEN3pyH2-96" value="Redacted_Words" style="rounded=0;whiteSpace=wrap;html=1;" parent="6xximR7d4hi-XPsdOH5O-1" vertex="1">
          <mxGeometry width="200" height="40" as="geometry" />
        </mxCell>
        <mxCell id="MCdQvpjKP1I-DEN3pyH2-106" value="" style="group;fontStyle=1" parent="6xximR7d4hi-XPsdOH5O-1" vertex="1" connectable="0">
          <mxGeometry y="40" width="200" height="40" as="geometry" />
        </mxCell>
        <mxCell id="MCdQvpjKP1I-DEN3pyH2-107" value="" style="group" parent="MCdQvpjKP1I-DEN3pyH2-106" vertex="1" connectable="0">
          <mxGeometry width="200" height="40" as="geometry" />
        </mxCell>
        <mxCell id="MCdQvpjKP1I-DEN3pyH2-108" value="" style="rounded=0;whiteSpace=wrap;html=1;" parent="MCdQvpjKP1I-DEN3pyH2-107" vertex="1">
          <mxGeometry width="200" height="40" as="geometry" />
        </mxCell>
        <mxCell id="MCdQvpjKP1I-DEN3pyH2-109" value="Int PK" style="text;html=1;strokeColor=none;fillColor=none;align=center;verticalAlign=middle;whiteSpace=wrap;rounded=0;" parent="MCdQvpjKP1I-DEN3pyH2-107" vertex="1">
          <mxGeometry width="80" height="40" as="geometry" />
        </mxCell>
        <mxCell id="MCdQvpjKP1I-DEN3pyH2-110" value="id" style="text;html=1;strokeColor=none;fillColor=none;align=center;verticalAlign=middle;whiteSpace=wrap;rounded=0;" parent="MCdQvpjKP1I-DEN3pyH2-106" vertex="1">
          <mxGeometry x="80" width="120" height="40" as="geometry" />
        </mxCell>
        <mxCell id="MCdQvpjKP1I-DEN3pyH2-111" value="" style="endArrow=none;html=1;entryX=0.4;entryY=-0.002;entryDx=0;entryDy=0;entryPerimeter=0;exitX=0;exitY=1;exitDx=0;exitDy=0;" parent="MCdQvpjKP1I-DEN3pyH2-106" source="MCdQvpjKP1I-DEN3pyH2-110" target="MCdQvpjKP1I-DEN3pyH2-108" edge="1">
          <mxGeometry width="50" height="50" relative="1" as="geometry">
            <mxPoint x="80" y="40" as="sourcePoint" />
            <mxPoint x="200" y="-10" as="targetPoint" />
          </mxGeometry>
        </mxCell>
        <mxCell id="MCdQvpjKP1I-DEN3pyH2-112" value="" style="group;fontStyle=1" parent="6xximR7d4hi-XPsdOH5O-1" vertex="1" connectable="0">
          <mxGeometry y="80" width="200" height="40" as="geometry" />
        </mxCell>
        <mxCell id="MCdQvpjKP1I-DEN3pyH2-113" value="" style="group" parent="MCdQvpjKP1I-DEN3pyH2-112" vertex="1" connectable="0">
          <mxGeometry width="200" height="40" as="geometry" />
        </mxCell>
        <mxCell id="MCdQvpjKP1I-DEN3pyH2-114" value="" style="rounded=0;whiteSpace=wrap;html=1;" parent="MCdQvpjKP1I-DEN3pyH2-113" vertex="1">
          <mxGeometry width="200" height="40" as="geometry" />
        </mxCell>
        <mxCell id="MCdQvpjKP1I-DEN3pyH2-115" value="&lt;font style=&quot;font-size: 10px&quot;&gt;VARCHAR(255)&lt;/font&gt;" style="text;html=1;strokeColor=none;fillColor=none;align=center;verticalAlign=middle;whiteSpace=wrap;rounded=0;" parent="MCdQvpjKP1I-DEN3pyH2-113" vertex="1">
          <mxGeometry width="80" height="40" as="geometry" />
        </mxCell>
        <mxCell id="MCdQvpjKP1I-DEN3pyH2-116" value="Word_or_Phrase" style="text;html=1;strokeColor=none;fillColor=none;align=center;verticalAlign=middle;whiteSpace=wrap;rounded=0;" parent="MCdQvpjKP1I-DEN3pyH2-112" vertex="1">
          <mxGeometry x="80" width="120" height="40" as="geometry" />
        </mxCell>
        <mxCell id="MCdQvpjKP1I-DEN3pyH2-117" value="" style="endArrow=none;html=1;entryX=0.4;entryY=-0.002;entryDx=0;entryDy=0;entryPerimeter=0;exitX=0;exitY=1;exitDx=0;exitDy=0;" parent="MCdQvpjKP1I-DEN3pyH2-112" source="MCdQvpjKP1I-DEN3pyH2-116" target="MCdQvpjKP1I-DEN3pyH2-114" edge="1">
          <mxGeometry width="50" height="50" relative="1" as="geometry">
            <mxPoint x="80" y="40" as="sourcePoint" />
            <mxPoint x="200" y="-10" as="targetPoint" />
          </mxGeometry>
        </mxCell>
        <mxCell id="6xximR7d4hi-XPsdOH5O-2" value="" style="group" vertex="1" connectable="0" parent="1">
          <mxGeometry x="400" y="160" width="200" height="120" as="geometry" />
        </mxCell>
        <mxCell id="MCdQvpjKP1I-DEN3pyH2-1" value="Redacted_Documents" style="rounded=0;whiteSpace=wrap;html=1;" parent="6xximR7d4hi-XPsdOH5O-2" vertex="1">
          <mxGeometry width="200" height="40" as="geometry" />
        </mxCell>
        <mxCell id="MCdQvpjKP1I-DEN3pyH2-9" value="" style="group" parent="6xximR7d4hi-XPsdOH5O-2" vertex="1" connectable="0">
          <mxGeometry y="40" width="200" height="40" as="geometry" />
        </mxCell>
        <mxCell id="MCdQvpjKP1I-DEN3pyH2-6" value="" style="group" parent="MCdQvpjKP1I-DEN3pyH2-9" vertex="1" connectable="0">
          <mxGeometry width="200" height="40" as="geometry" />
        </mxCell>
        <mxCell id="MCdQvpjKP1I-DEN3pyH2-2" value="" style="rounded=0;whiteSpace=wrap;html=1;" parent="MCdQvpjKP1I-DEN3pyH2-6" vertex="1">
          <mxGeometry width="200" height="40" as="geometry" />
        </mxCell>
        <mxCell id="MCdQvpjKP1I-DEN3pyH2-7" value="Int PK" style="text;html=1;strokeColor=none;fillColor=none;align=center;verticalAlign=middle;whiteSpace=wrap;rounded=0;" parent="MCdQvpjKP1I-DEN3pyH2-6" vertex="1">
          <mxGeometry width="80" height="40" as="geometry" />
        </mxCell>
        <mxCell id="MCdQvpjKP1I-DEN3pyH2-8" value="id" style="text;html=1;strokeColor=none;fillColor=none;align=center;verticalAlign=middle;whiteSpace=wrap;rounded=0;" parent="MCdQvpjKP1I-DEN3pyH2-9" vertex="1">
          <mxGeometry x="80" width="120" height="40" as="geometry" />
        </mxCell>
        <mxCell id="MCdQvpjKP1I-DEN3pyH2-5" value="" style="endArrow=none;html=1;entryX=0.4;entryY=-0.002;entryDx=0;entryDy=0;entryPerimeter=0;exitX=0;exitY=1;exitDx=0;exitDy=0;" parent="MCdQvpjKP1I-DEN3pyH2-9" source="MCdQvpjKP1I-DEN3pyH2-8" target="MCdQvpjKP1I-DEN3pyH2-2" edge="1">
          <mxGeometry width="50" height="50" relative="1" as="geometry">
            <mxPoint x="80" y="40" as="sourcePoint" />
            <mxPoint x="200" y="-10" as="targetPoint" />
          </mxGeometry>
        </mxCell>
        <mxCell id="MCdQvpjKP1I-DEN3pyH2-59" value="" style="group" parent="6xximR7d4hi-XPsdOH5O-2" vertex="1" connectable="0">
          <mxGeometry y="80" width="200" height="40" as="geometry" />
        </mxCell>
        <mxCell id="MCdQvpjKP1I-DEN3pyH2-60" value="" style="group" parent="MCdQvpjKP1I-DEN3pyH2-59" vertex="1" connectable="0">
          <mxGeometry width="200" height="40" as="geometry" />
        </mxCell>
        <mxCell id="MCdQvpjKP1I-DEN3pyH2-61" value="" style="rounded=0;whiteSpace=wrap;html=1;" parent="MCdQvpjKP1I-DEN3pyH2-60" vertex="1">
          <mxGeometry width="200" height="40" as="geometry" />
        </mxCell>
        <mxCell id="MCdQvpjKP1I-DEN3pyH2-62" value="&lt;font style=&quot;font-size: 10px&quot;&gt;VARCHAR(100)&lt;/font&gt;" style="text;html=1;strokeColor=none;fillColor=none;align=center;verticalAlign=middle;whiteSpace=wrap;rounded=0;" parent="MCdQvpjKP1I-DEN3pyH2-60" vertex="1">
          <mxGeometry width="80" height="40" as="geometry" />
        </mxCell>
        <mxCell id="MCdQvpjKP1I-DEN3pyH2-63" value="Document_Path" style="text;html=1;strokeColor=none;fillColor=none;align=center;verticalAlign=middle;whiteSpace=wrap;rounded=0;" parent="MCdQvpjKP1I-DEN3pyH2-59" vertex="1">
          <mxGeometry x="80" width="120" height="40" as="geometry" />
        </mxCell>
        <mxCell id="MCdQvpjKP1I-DEN3pyH2-64" value="" style="endArrow=none;html=1;entryX=0.4;entryY=-0.002;entryDx=0;entryDy=0;entryPerimeter=0;exitX=0;exitY=1;exitDx=0;exitDy=0;" parent="MCdQvpjKP1I-DEN3pyH2-59" source="MCdQvpjKP1I-DEN3pyH2-63" target="MCdQvpjKP1I-DEN3pyH2-61" edge="1">
          <mxGeometry width="50" height="50" relative="1" as="geometry">
            <mxPoint x="80" y="40" as="sourcePoint" />
            <mxPoint x="200" y="-10" as="targetPoint" />
          </mxGeometry>
        </mxCell>
        <mxCell id="6xximR7d4hi-XPsdOH5O-3" value="" style="group" vertex="1" connectable="0" parent="1">
          <mxGeometry x="680" y="160" width="200" height="120" as="geometry" />
        </mxCell>
        <mxCell id="MCdQvpjKP1I-DEN3pyH2-90" value="" style="group" parent="6xximR7d4hi-XPsdOH5O-3" vertex="1" connectable="0">
          <mxGeometry y="40" width="200" height="40" as="geometry" />
        </mxCell>
        <mxCell id="MCdQvpjKP1I-DEN3pyH2-91" value="" style="group" parent="MCdQvpjKP1I-DEN3pyH2-90" vertex="1" connectable="0">
          <mxGeometry width="200" height="40" as="geometry" />
        </mxCell>
        <mxCell id="MCdQvpjKP1I-DEN3pyH2-92" value="" style="rounded=0;whiteSpace=wrap;html=1;" parent="MCdQvpjKP1I-DEN3pyH2-91" vertex="1">
          <mxGeometry width="200" height="40" as="geometry" />
        </mxCell>
        <mxCell id="MCdQvpjKP1I-DEN3pyH2-93" value="Int PK FK" style="text;html=1;strokeColor=none;fillColor=none;align=center;verticalAlign=middle;whiteSpace=wrap;rounded=0;" parent="MCdQvpjKP1I-DEN3pyH2-91" vertex="1">
          <mxGeometry width="80" height="40" as="geometry" />
        </mxCell>
        <mxCell id="MCdQvpjKP1I-DEN3pyH2-94" value="Document_Name_FK" style="text;html=1;strokeColor=none;fillColor=none;align=center;verticalAlign=middle;whiteSpace=wrap;rounded=0;" parent="MCdQvpjKP1I-DEN3pyH2-90" vertex="1">
          <mxGeometry x="80" width="120" height="40" as="geometry" />
        </mxCell>
        <mxCell id="MCdQvpjKP1I-DEN3pyH2-95" value="" style="endArrow=none;html=1;entryX=0.4;entryY=-0.002;entryDx=0;entryDy=0;entryPerimeter=0;exitX=0;exitY=1;exitDx=0;exitDy=0;" parent="MCdQvpjKP1I-DEN3pyH2-90" source="MCdQvpjKP1I-DEN3pyH2-94" target="MCdQvpjKP1I-DEN3pyH2-92" edge="1">
          <mxGeometry width="50" height="50" relative="1" as="geometry">
            <mxPoint x="80" y="40" as="sourcePoint" />
            <mxPoint x="200" y="-10" as="targetPoint" />
          </mxGeometry>
        </mxCell>
        <mxCell id="MCdQvpjKP1I-DEN3pyH2-97" value="Redacted_Documents_Words" style="rounded=0;whiteSpace=wrap;html=1;" parent="6xximR7d4hi-XPsdOH5O-3" vertex="1">
          <mxGeometry width="200" height="40" as="geometry" />
        </mxCell>
        <mxCell id="MCdQvpjKP1I-DEN3pyH2-98" value="" style="group;fontStyle=1" parent="6xximR7d4hi-XPsdOH5O-3" vertex="1" connectable="0">
          <mxGeometry y="80" width="200" height="40" as="geometry" />
        </mxCell>
        <mxCell id="MCdQvpjKP1I-DEN3pyH2-99" value="" style="group" parent="MCdQvpjKP1I-DEN3pyH2-98" vertex="1" connectable="0">
          <mxGeometry width="200" height="40" as="geometry" />
        </mxCell>
        <mxCell id="MCdQvpjKP1I-DEN3pyH2-100" value="" style="rounded=0;whiteSpace=wrap;html=1;" parent="MCdQvpjKP1I-DEN3pyH2-99" vertex="1">
          <mxGeometry width="200" height="40" as="geometry" />
        </mxCell>
        <mxCell id="MCdQvpjKP1I-DEN3pyH2-101" value="Int PK FK" style="text;html=1;strokeColor=none;fillColor=none;align=center;verticalAlign=middle;whiteSpace=wrap;rounded=0;" parent="MCdQvpjKP1I-DEN3pyH2-99" vertex="1">
          <mxGeometry width="80" height="40" as="geometry" />
        </mxCell>
        <mxCell id="MCdQvpjKP1I-DEN3pyH2-102" value="Redacted_Word_FK" style="text;html=1;strokeColor=none;fillColor=none;align=center;verticalAlign=middle;whiteSpace=wrap;rounded=0;" parent="MCdQvpjKP1I-DEN3pyH2-98" vertex="1">
          <mxGeometry x="80" width="120" height="40" as="geometry" />
        </mxCell>
        <mxCell id="MCdQvpjKP1I-DEN3pyH2-103" value="" style="endArrow=none;html=1;entryX=0.4;entryY=-0.002;entryDx=0;entryDy=0;entryPerimeter=0;exitX=0;exitY=1;exitDx=0;exitDy=0;" parent="MCdQvpjKP1I-DEN3pyH2-98" source="MCdQvpjKP1I-DEN3pyH2-102" target="MCdQvpjKP1I-DEN3pyH2-100" edge="1">
          <mxGeometry width="50" height="50" relative="1" as="geometry">
            <mxPoint x="80" y="40" as="sourcePoint" />
            <mxPoint x="200" y="-10" as="targetPoint" />
          </mxGeometry>
        </mxCell>
      </root>
    </mxGraphModel>
  </diagram>
</mxfile>
